<svg width="19" height="20" viewBox="0 0 19 20" fill="none" xmlns="http://www.w3.org/2000/svg">
					<path fill="currentColor" d="M18.9,5.2C18.9,5.1,18.9,5.1,18.9,5.2c0-0.1,0-0.1,0-0.1c0,0,0,0,0-0.1c-0.1-0.2-0.3-0.3-0.5-0.4l-8.2-4.4
	C9.7,0,9.3,0,8.9,0.1L0.7,4.6C0.5,4.7,0.3,4.8,0.2,5c0,0,0,0,0,0.1c0,0,0,0,0,0c0,0,0,0.1,0,0.1C0,5.3,0,5.5,0,5.6v8.8
	c0,0.2,0.1,0.4,0.2,0.6c0.1,0.2,0.3,0.3,0.5,0.4l8.2,4.4C9.1,19.9,9.3,20,9.5,20s0.4-0.1,0.6-0.1l8.3-4.4c0,0,0,0,0,0
	c0.2-0.1,0.4-0.3,0.5-0.4s0.2-0.4,0.2-0.6V5.6C19,5.5,19,5.3,18.9,5.2z M9.4,1c0,0,0.1,0,0.1,0s0.1,0,0.1,0l7.9,4.2L14.2,7
	c0,0,0,0,0,0L6.2,2.7L9.4,1z M9.5,9.5L1.4,5.2l3.7-2l8.1,4.3L9.5,9.5z M1.1,14.6C1.1,14.6,1.1,14.5,1.1,14.6C1,14.5,1,14.4,1,14.4
	V6.1l8,4.3v8.4L1.1,14.6z M18,14.5C17.9,14.5,17.9,14.6,18,14.5l-8,4.3v-8.4l3.5-1.9v3.7c0,0.3,0.2,0.5,0.5,0.5s0.5-0.2,0.5-0.5V8
	L18,6.1v8.3C18,14.4,18,14.5,18,14.5z"></path>
				</svg>