<svg width="19" height="19" viewBox="0 0 19 19" fill="none" xmlns="http://www.w3.org/2000/svg">
			<path fill="currentColor" d="M9.5,0C4.3,0,0,4.3,0,9.5S4.3,19,9.5,19S19,14.7,19,9.5S14.7,0,9.5,0z M10,18v-6.5h2.5c0.3,0,0.5-0.2,0.5-0.5
	s-0.2-0.5-0.5-0.5H10V8c0-0.5,0.2-0.9,0.5-1.2c0.3-0.3,0.8-0.5,1.2-0.5h1.5c0.3,0,0.5-0.2,0.5-0.5s-0.2-0.5-0.5-0.5h-1.5
	c-0.7,0-1.4,0.3-1.9,0.8C9.3,6.6,9,7.3,9,8v2.5H6.5C6.2,10.5,6,10.7,6,11s0.2,0.5,0.5,0.5H9V18c-4.5-0.3-8-4-8-8.5
	C1,4.8,4.8,1,9.5,1C14.2,1,18,4.8,18,9.5C18,14,14.5,17.7,10,18z"></path>
		</svg>