<svg xmlns="http://www.w3.org/2000/svg" width="106" height="20" viewBox="0 0 106 20">
			<g>
				<path fill="currentColor" d="M12.3,16.1c0-0.1-0.1-0.2-0.2-0.3c-0.1,0-0.1,0-0.1,0.1c0,0,0,0,0,0.1c0,0.1-0.1,0.1-0.1,0.2c0,0,0,0.1,0,0.1v0
		c0,0.2-0.1,0.4-0.1,0.6c-0.4,1.4-1.2,2.5-2.8,2.6c-1.1,0.1-2.1,0.1-3.2,0.1c-0.7,0-0.7,0-0.7-0.6v-0.7c0-1.6,0-3.2,0-4.8V9.6
		c0-2.6,0-5.1,0-7.7c0-0.3,0.1-0.6,0.2-0.9C5.4,1,5.4,1,5.4,0.9c0,0,0,0,0-0.1c0,0,0.1-0.1,0.1-0.1c0.1-0.1,0.2-0.2,0.2-0.2
		c0,0,0,0,0.1-0.1c0,0,0.1,0,0.1-0.1C6,0.4,6,0.3,6,0.3c0,0,0-0.1-0.1-0.1c0,0,0,0-0.1,0c0,0-0.1,0-0.1,0c0,0,0,0-0.1,0
		c0,0,0,0-0.1,0C5.6,0,5.5,0,5.5,0C5.4,0,5.3,0,5.1,0H0.6c-0.2,0-0.2,0-0.3,0c0,0,0,0,0,0C0.2,0.1,0.1,0.1,0,0.3
		c0,0.1,0,0.1,0.1,0.2c0,0,0,0,0.1,0.1c0,0,0,0,0.1,0.1c0,0,0.3,0.2,0.4,0.5c0,0,0,0,0,0c0.1,0.3,0.2,0.5,0.2,0.9c0,2.6,0,5.1,0,7.7
		c0,2.9,0,5.7,0,8.6c0,0.2-0.1,0.4-0.1,0.6c-0.1,0.3-0.4,0.6-0.4,0.6c0,0.1-0.1,0.1-0.1,0.1C0.1,19.7,0,19.8,0,19.8
		C0,20,0.4,20,0.5,20c0,0,0,0,0.1,0c1.9,0,3.7,0,5.6,0c1.9,0,3.8,0,5.7,0c0.1,0,0.3,0,0.4-0.1c0.1-0.1,0.1-0.2,0.1-0.2l0,0
		C12.3,19.4,12.3,18,12.3,16.1z"></path>
				<path fill="currentColor" d="M80.6,19.7c0-0.1-0.1-0.1-0.2-0.1c-0.1,0-0.2,0-0.3-0.1c-0.1,0-0.2-0.1-0.3-0.1c-0.4-0.2-0.6-0.4-0.7-0.5
		c-0.1-0.1-0.2-0.2-0.3-0.4c-0.4-0.5-0.7-1.1-1-1.6c-0.7-1.6-1.4-3.2-2.1-4.7c-0.6-1.2-1.3-2.4-2.6-3.1C73.4,9.1,73.6,9,73.8,9
		c1.1-0.3,2.1-0.8,2.8-1.8c1.3-1.8,1.1-5.2-2.3-6.4c-1.5-0.5-3-0.6-4.5-0.7c-1.7,0-3.5,0-5.2,0c-0.2,0-0.5,0-0.7,0
		c-0.3,0-0.5,0-0.8,0c0,0,0,0-0.1,0c0,0-0.1,0-0.1,0c0,0-0.1,0-0.1,0c0,0,0,0,0,0c0,0-0.1,0-0.1,0h0c0,0,0,0,0,0c0,0-0.1,0-0.1,0
		c0,0,0,0,0,0c0,0-0.1,0.1,0,0.1c0,0,0,0,0,0c0,0,0,0,0,0c0,0,0,0,0,0.1c0,0,0,0,0,0c0,0,0,0,0.1,0.1c0.2,0.1,0.3,0.2,0.4,0.4
		c0,0,0,0,0,0.1c0,0,0.1,0.1,0.1,0.1c0,0,0,0.1,0.1,0.1c0,0,0,0,0,0.1c0,0,0,0,0,0.1c0,0,0,0.1,0,0.1c0,0,0,0.1,0,0.1c0,0,0,0,0,0
		c0,0,0,0,0,0.1c0,0,0,0.1,0,0.1c0,0,0,0,0,0c0,0,0,0,0,0.1c0,0,0,0,0,0c0,0,0,0.1,0,0.1c0,0,0,0,0,0c0,0,0,0,0,0.1v0
		c0,0,0,0.1,0,0.1c0,3.6,0,7.3,0,10.9c0,1.8,0,3.5,0,5.3c0,0.3-0.1,0.5-0.2,0.7c-0.1,0.3-0.4,0.6-0.4,0.6c-0.2,0.2-0.3,0.3-0.3,0.4
		c0,0.1,0.1,0.1,0.5,0.1c1.7,0,3.4,0,5.1,0c0.3,0,0.5-0.1,0.5-0.2c0,0,0,0,0,0c0,0,0,0,0,0c0,0,0,0,0,0c0,0,0,0,0,0c0,0,0,0,0,0
		c0,0,0,0,0,0c0,0,0,0,0,0c0,0,0,0,0,0c0,0,0,0,0,0c0,0,0,0,0,0c0,0-0.1,0-0.1,0c-0.1-0.1-0.3-0.2-0.4-0.4c-0.4-0.5-0.3-1.1-0.3-1.3
		c0-1.5,0-3,0-4.6c0-1.2,0-2.3,0-3.5c0-0.1,0.1-0.4,0.2-0.4c0.8-0.2,1.5,0,1.9,0.7c0.5,0.8,0.9,1.5,1.2,2.3c0.7,1.5,1.3,2.9,2,4.4
		c0.5,1,1.2,2,2.3,2.5c1.4,0.6,2.9,0.6,4.4,0.6c0.1,0,0.1,0,0.2,0c0,0,0.1,0,0.1,0c0.1,0,0.1,0,0.2,0c0,0,0,0,0.1,0c0,0,0,0,0.1,0
		c0,0,0.1,0,0.1,0c0,0,0,0,0,0c0,0,0,0,0-0.1C80.6,19.7,80.6,19.7,80.6,19.7L80.6,19.7z M72.2,7.8L72.2,7.8c-0.4,0.8-1.1,1.2-2,1.2
		c-0.7,0-1.4,0-2.1,0c-0.3,0-0.4-0.1-0.4-0.4c0-2,0-4,0-6.1c0-0.5,0-1.1,0-1.6c0,0,0-0.1,0-0.1c0-0.1,0.1-0.2,0.2-0.3
		c0.1,0,0.1,0,0.2,0c0.4,0,0.7,0,1.1,0c0.3,0,0.6,0,0.9,0c0,0,0.1,0,0.1,0c0.1,0,0.2,0,0.3,0c0.1,0,0.1,0,0.2,0
		c0.9,0.1,1.5,0.7,1.8,1.5C73.4,4,73.3,5.9,72.2,7.8z"></path>
				<path fill="currentColor" d="M105.9,19.5L105.9,19.5C105.9,19.5,105.9,19.5,105.9,19.5c-0.2-0.1-0.2-0.2-0.3-0.2c-0.1-0.1-0.2-0.2-0.3-0.4c0,0,0,0,0,0
		c-0.1-0.1-0.1-0.2-0.1-0.4c0-0.1-0.1-0.3-0.1-0.4c0-0.5,0-1,0-1.5c0-1.9,0-3.8,0-5.7c0-0.2,0-0.4,0-0.6c0-0.4,0-0.8,0-1.2
		c0-2.4,0-4.7,0-7.1c0-0.3,0.1-0.6,0.2-0.9c0-0.1,0.1-0.1,0.1-0.2c0,0,0,0,0-0.1c0,0,0.1-0.1,0.1-0.1c0.1-0.1,0.2-0.2,0.2-0.2
		c0,0,0,0,0.1-0.1c0,0,0.1,0,0.1-0.1c0.1-0.1,0.1-0.1,0.1-0.2c0,0,0,0,0,0c0,0,0,0,0-0.1c0,0,0,0,0,0c0,0,0,0-0.1,0c0,0-0.1,0-0.1,0
		c0,0,0,0,0,0c0,0,0,0-0.1,0c0,0,0,0-0.1,0c0,0,0,0-0.1,0c0,0-0.1,0-0.1,0c-0.1,0-0.2,0-0.4,0h-4.2c0,0-0.1,0-0.1,0c0,0,0,0,0,0
		c0,0-0.1,0-0.1,0c0,0-0.1,0-0.1,0c0,0-0.1,0-0.1,0h0c-0.2,0-0.3,0.1-0.3,0.2c0,0.1,0,0.1,0.1,0.2c0,0,0,0,0,0
		c0.5,0.3,0.7,0.8,0.7,1.4c0,5.4,0,10.7,0,16.1c0,0.3-0.1,0.7-0.2,0.9c-0.1,0.1-0.2,0.3-0.3,0.4c0,0-0.1,0.1-0.1,0.1
		c0,0,0,0-0.1,0.1c0,0-0.1,0-0.1,0.1c-0.1,0.1-0.1,0.1-0.1,0.2c0,0,0,0,0,0c0,0,0,0,0,0.1c0,0,0,0,0,0c0,0,0,0,0.1,0
		c0,0,0.1,0,0.1,0c0,0,0,0,0,0c0,0,0,0,0.1,0c0,0,0,0,0.1,0c0,0,0,0,0.1,0c0,0,0,0,0.1,0c0,0,0,0,0.1,0c0.1,0,0.3,0,0.5,0
		c0.1,0,0.2,0,0.3,0c0.1,0,0.2,0,0.3,0c0,0,0,0,0,0c0,0,0.1,0,0.1,0c0.3,0,0.6,0,0.9,0c0.1,0,0.2,0,0.3,0c0,0,0,0,0,0c0,0,0,0,0,0
		c0.2,0,0.5,0,0.7,0c0.2,0,0.4,0,0.6,0c0,0,0,0,0,0c0,0,0,0,0,0c0.1,0,0.2,0,0.3,0c0,0,0.1,0,0.1,0c0,0,0.1,0,0.1,0
		c0.1,0,0.1,0,0.2,0h0c0.1,0,0.1,0,0.2,0c0,0,0,0,0,0c0,0,0.1,0,0.1,0c0,0,0,0,0.1,0c0,0,0,0,0.1,0c0,0,0.1,0,0.1,0h0
		c0.2,0,0.3-0.1,0.3-0.2C106,19.7,106,19.6,105.9,19.5z"></path>
				<path fill="currentColor" d="M28.1,0.1h-1.6c-0.2,0-0.4,0.1-0.4,0.2c0,0,0,0.1,0.1,0.2c0,0,0,0,0.1,0.1c0,0,0,0,0.1,0.1c0,0,0.3,0.2,0.4,0.5
		c0,0,0,0,0,0c0.1,0.3,0.2,0.5,0.2,0.9c0,0.1,0,0.1,0,0.2c0,2.5,0,5,0,7.5v3.6c0,0.5,0,0.9-0.1,1.3c-0.3,2.5-1.7,4.4-4.1,4.9
		c-0.3,0.1-0.6,0.1-0.9,0.1c-0.1,0-0.3,0-0.4,0c-1.3-0.1-2.3-0.7-3-1.9c-0.5-0.8-0.7-1.7-0.8-2.6c0-1.8,0-3.6,0-5.4c0-1.6,0-3.3,0-5
		c0-0.9,0-1.8,0-2.8c0-0.3,0.1-0.6,0.2-0.9C18,1,18,1,18,0.9c0,0,0,0,0-0.1c0.1-0.1,0.1-0.1,0.3-0.3c0.1-0.1,0.1-0.1,0.2-0.2
		c0,0,0-0.1,0-0.1c0-0.1-0.1-0.1-0.3-0.2c-0.1,0-0.2-0.1-0.4-0.1h-4.5c-0.1,0-0.7,0-0.8,0.2c0,0,0,0.1,0.1,0.2c0,0,0,0,0.1,0.1
		c0,0,0,0,0.1,0.1c0,0,0.1,0.1,0.2,0.2c0,0,0,0,0,0c0.1,0.1,0.1,0.1,0.2,0.2c0,0,0.1,0.1,0.1,0.1c0,0,0,0,0,0
		c0.1,0.3,0.2,0.5,0.2,0.9c0,0,0,0,0,0.1c0,0.9,0,1.8,0,2.7c0,1.1,0,2.1,0,3.2c0,1.1,0,2.2,0,3.3c0,0.2,0,0.5,0,0.7
		c0,0.8,0,1.7,0.1,2.5c0,0.2,0,0.4,0.1,0.6c0,0.3,0.1,0.5,0.1,0.8c0.4,1.6,1.4,2.7,3,3.4c0.2,0.1,0.4,0.2,0.5,0.2
		c0.2,0.1,0.3,0.1,0.5,0.2c0,0,0.1,0,0.1,0c0.1,0,0.2,0.1,0.3,0.1c1,0.3,2.1,0.4,3.2,0.4c0,0,0.1,0,0.1,0c0.4,0,0.8,0,1.2,0
		c0,0,0,0,0.1,0c1.5-0.1,2.7-0.8,3.7-2.1c0.3-0.3,0.5-0.7,0.6-1.1c0.5-1.1,0.7-2.2,0.7-3.4c0-3.8,0-7.5,0-11.3
		c0-0.7,0.1-1.2,0.7-1.6c0.1-0.1,0.2-0.2,0.2-0.2l0,0c0,0,0,0,0-0.1C28.3,0.1,28.2,0.1,28.1,0.1z"></path>
				<path fill="currentColor" d="M98.2,7.6c-0.5-2.4-1.7-4.3-3.7-5.7c-1.8-1.3-3.9-1.8-6.1-1.8c-0.6,0-1.1,0-1.7,0h-4.4h-0.1c-0.2,0-0.3,0-0.4,0
		c-0.1,0-0.2,0-0.3,0c-0.1,0-0.1,0-0.2,0c-0.1,0-0.2,0.1-0.2,0.1c0,0,0,0.1,0,0.1c0,0,0,0,0,0.1c0,0.1,0.1,0.1,0.1,0.2
		c0.1,0.1,0.2,0.1,0.2,0.2c0,0,0,0,0,0c0,0,0,0,0,0c0,0,0,0,0,0c0,0,0,0,0,0C81.9,1.1,82,1.5,82,1.9c0,2,0,4.1,0,6.1
		c0,3.1,0,6.2,0,9.3c0,0.1,0,0.1,0,0.2c0,0.4,0,0.6,0,0.8c0,0.4-0.2,0.6-0.2,0.7c0,0.1-0.1,0.1-0.1,0.2c-0.1,0.2-0.3,0.3-0.4,0.4
		c-0.1,0.1-0.1,0.1-0.1,0.2c0,0,0,0,0,0c0,0,0,0,0,0c0,0,0.1,0.1,0.2,0.1c0.2,0,0.4,0,0.7,0.1c0,0,0,0,0,0c0.2,0,0.4,0,0.7,0
		c0.9,0,1.8,0,2.9,0c1.7-0.1,3.7,0.2,5.6-0.3c2.9-0.7,5.1-2.3,6.4-5.1C98.6,12.3,98.7,9.9,98.2,7.6L98.2,7.6z M94,13.3
		c-0.3,1.5-0.7,2.9-1.6,4.2c-0.5,0.7-1.1,1.2-1.7,1.6c-0.4,0.2-0.7,0.3-0.9,0.4c-0.4,0.1-0.8,0.1-1.6,0.2c-0.3,0-0.5,0-0.6,0
		c-0.4,0-0.7,0-0.8,0c0,0-0.1,0-0.2-0.1c0,0-0.1-0.1-0.1-0.1c-0.1-0.1-0.1-0.2-0.1-0.5c0-3,0-6,0-9c0-3,0-6,0-9c0-0.2,0-0.4,0.1-0.5
		c0,0,0.1-0.1,0.1-0.1c0.1,0,0.2-0.1,0.2-0.1c0,0,0,0,0,0c0,0,0,0,0.1,0c0.2,0,0.4,0,0.7,0c0.1,0,0.4,0,0.6,0c0.8,0,1.2,0.1,1.6,0.2
		c0,0,0,0,0,0C90,0.8,90.3,0.9,90.6,1c0.9,0.5,1.6,1.3,2.1,2.2c0.8,1.5,1.2,3.1,1.3,4.7C94.3,9.7,94.3,11.5,94,13.3L94,13.3z"></path>
				<path fill="currentColor" d="M61.8,19.5c-0.1-0.3-0.5-0.3-0.8-0.7c-0.2-0.2-0.3-0.4-0.4-0.7c-0.8-2.4-1.7-4.9-2.5-7.3C57,7.4,55.8,4,54.7,0.5
		c0-0.1-0.1-0.3-0.2-0.4c0,0,0,0,0,0c0,0,0,0,0,0C54.2,0.1,54.1,0,54,0c-0.1,0-0.2,0-0.2,0h-3.3c-0.2,0-0.6,0-0.7,0.1c0,0,0,0,0,0
		c-0.1,0-0.2,0.1-0.2,0.2c0,0,0,0,0,0.1c0,0,0,0.1,0,0.2c0,0.1,0.1,0.1,0.1,0.1l0.1,0.1c0.1,0,0.1,0.1,0.2,0.2C50,0.9,50.1,1,50.1,1
		c0.1,0.1,0.2,0.3,0.2,0.4c0,0,0,0,0,0c0.1,0.3,0,0.6,0,0.7c0,0.1-0.1,0.2-0.1,0.4c-0.5,1.6-1.1,3.2-1.6,4.8
		c-0.4,1.1-0.7,2.2-1.1,3.3c0,0,0,0,0,0c-0.1,0.4-0.6,1.5-1.4,3c-0.5,1-1,1.7-1.2,2c-0.6,1-1,1.5-1.2,1.8c-1,1.2-2.8,1.9-4.4,2
		c-0.6,0-1.1-0.1-1.6-0.3c-1.7-0.6-2.7-1.9-3.4-3.5c-0.8-1.9-1-3.8-1-6.1c0-1.8,0.2-3.8,0.8-5.7c0.6-1.7,1.5-3.1,3.4-3.4
		c0.2,0,0.4-0.1,0.6-0.1c1.7-0.1,3.7,0.8,4.2,2.8c0.1,0.5,0.1,1.1,0.2,1.6c0.1,0.8,0.7,1.3,1.4,1.4c0.1,0,0.3,0,0.4,0
		c0.8-0.2,1.2-1,1-1.9c-0.3-1.2-1-2-2-2.7c-1.6-1.1-3.3-1.6-5.2-1.5c-0.5,0-1.1,0.1-1.6,0.2c-3,0.6-5.2,2.4-6.5,5.2
		c-1.2,2.5-1.2,5-0.6,7.6c0.5,2.3,1.8,4.1,3.8,5.4c1.7,1.1,3.7,1.6,5.7,1.5c0.3,0,0.6,0,0.9,0c1.2-0.1,2.2-0.4,3.1-1
		c1.2-0.7,1.8-1.7,2.2-2.4c0.2-0.3,0.4-0.7,0.7-1.3c0,0,0.8-1.6,1.5-2.2c0.1-0.1,0.2-0.1,0.2-0.1c0.1,0,0.2-0.1,0.3-0.1
		c1,0,1.9,0,2.9,0c1.1,0,2.2,0,3.2,0c0.3,0,0.5,0.1,0.6,0.4c0.3,1,0.7,1.9,1,2.9c0.3,0.7,0.5,1.5,0.7,2.2c0,0.1,0.1,0.3,0.1,0.5
		c0,0.1,0,0.1,0,0.2c0,0.1,0,0.1,0,0.1c0,0,0,0,0,0.1c0,0,0,0,0,0c0,0.1-0.1,0.1-0.1,0.1c-0.1,0.1-0.3,0.2-0.3,0.3
		c0,0.1,0,0.1,0,0.2C55.9,20,56,20,56.4,20h0.2c0,0,0.1,0,0.1,0c0.2,0,0.2,0,0.3,0c0.1,0,0.6,0,2,0h0.2c0.9,0,1.7,0,2.6,0
		C61.9,19.8,61.9,19.7,61.8,19.5L61.8,19.5z M53.9,12.6c-1.9,0-3.9,0-5.8,0c-0.5,0-0.6-0.1-0.4-0.5c1.1-3.1,2.1-6.2,3.2-9.3
		c0,0,0-0.1,0.1-0.1C51,3,51.1,3.3,51.2,3.6c1,2.8,1.9,5.7,2.9,8.5C54.2,12.5,54.2,12.6,53.9,12.6z"></path>
			</g>
		</svg>