<svg width="19" height="18" viewBox="0 0 19 18" fill="none" xmlns="http://www.w3.org/2000/svg">    <path fill="currentColor" d="M18.9,17.3c-1.5-2.6-3.9-4.3-6.6-5.1c2.2-1,3.7-3.2,3.7-5.8C16,2.9,13.1,0,9.5,0S3,2.9,3,6.4      c0,2.6,1.5,4.8,3.7,5.8c-2.8,0.7-5.1,2.5-6.6,5.1c-0.1,0.2-0.1,0.5,0.2,0.7c0.2,0.1,0.5,0.1,0.7-0.2c1.8-3.1,5-4.9,8.6-4.9      c3.6,0,6.8,1.8,8.6,4.9c0.1,0.2,0.3,0.2,0.4,0.2c0.1,0,0.2,0,0.2-0.1C19,17.8,19.1,17.5,18.9,17.3z M4,6.4C4,3.4,6.5,1,9.5,1      c3,0,5.5,2.4,5.5,5.4s-2.5,5.4-5.5,5.4C6.5,11.8,4,9.4,4,6.4z"></path>    </svg>