<svg width="19" height="16" viewBox="0 0 19 16" fill="none" xmlns="http://www.w3.org/2000/svg">
					<path fill="currentColor" d="M17.3,1.7C16.2,0.6,14.8,0,13.2,0H5C4.7,0,4.5,0.2,4.5,0.5S4.7,1,5,1h8.3c1.3,0,2.5,0.5,3.4,1.4C17.5,3.3,18,4.5,18,5.8
	c0,1.3-0.5,2.5-1.4,3.4c-0.9,0.9-2.1,1.4-3.4,1.4H1.7l3.6-3.6c0.2-0.2,0.2-0.5,0-0.7C5.2,6,4.8,6,4.6,6.1l-4.5,4.5
	c0,0-0.1,0.1-0.1,0.2C0,10.9,0,11.1,0,11.2c0,0.1,0.1,0.1,0.1,0.2l4.5,4.5C4.7,16,4.9,16,5,16s0.3,0,0.4-0.1c0.2-0.2,0.2-0.5,0-0.7
	l-3.6-3.6h11.5c1.5,0,3-0.6,4.1-1.7C18.4,8.7,19,7.3,19,5.8S18.4,2.8,17.3,1.7z"></path>
				</svg>