<svg width="20" height="19" viewBox="0 0 20 19" fill="none" xmlns="http://www.w3.org/2000/svg">
					<path fill="currentColor" d="M19.9,7.2c-0.1-0.2-0.2-0.4-0.4-0.6c-0.2-0.1-0.4-0.2-0.7-0.3l-5.4-0.5c0,0-0.1,0-0.1,0c0,0-0.1-0.1-0.1-0.1
	l-2.1-5c0,0,0,0,0,0c-0.1-0.2-0.2-0.4-0.4-0.5c-0.4-0.3-0.9-0.3-1.3,0C9.1,0.3,9,0.5,8.9,0.7l-2.1,5c0,0,0,0.1-0.1,0.1
	c0,0-0.1,0-0.1,0L1.1,6.3c-0.2,0-0.5,0.1-0.7,0.3C0.3,6.7,0.1,6.9,0.1,7.2C0,7.4,0,7.6,0,7.9c0.1,0.2,0.2,0.4,0.4,0.6L4.5,12
	c0,0,0.1,0.1,0.1,0.1c0,0,0,0.1,0,0.1l-1.2,5.3c-0.1,0.2,0,0.5,0,0.7c0.1,0.2,0.2,0.4,0.4,0.6C4.1,18.9,4.3,19,4.5,19
	c0.2,0,0.5,0,0.7-0.2L9.9,16c0.1,0,0.2,0,0.2,0l4.7,2.8c0.2,0.1,0.4,0.2,0.6,0.2c0,0,0,0,0.1,0c0.2,0,0.5-0.1,0.7-0.2
	c0.2-0.1,0.3-0.3,0.4-0.6c0.1-0.2,0.1-0.5,0-0.7l-1.2-5.3c0,0,0-0.1,0-0.1c0,0,0-0.1,0.1-0.1l4.1-3.5c0.2-0.2,0.3-0.4,0.4-0.6
	C20,7.6,20,7.4,19.9,7.2z M18.9,7.7l-4.1,3.6c-0.2,0.1-0.3,0.3-0.4,0.5c-0.1,0.2-0.1,0.4,0,0.6l1.2,5.3c0,0,0,0.1,0,0.1
	c0,0,0,0.1-0.1,0.1c0,0-0.1,0-0.1,0c0,0-0.1,0-0.1,0l-4.7-2.8C10.4,15.1,10.2,15,10,15c-0.2,0-0.4,0.1-0.6,0.2L4.7,18
	c0,0-0.1,0-0.1,0c0,0-0.1,0-0.1,0c0,0-0.1-0.1-0.1-0.1c0,0,0-0.1,0-0.1l1.2-5.3c0-0.2,0-0.4,0-0.6c-0.1-0.2-0.2-0.4-0.4-0.5L1.1,7.7
	C1,7.7,1,7.6,1,7.6c0,0,0-0.1,0-0.1c0,0,0-0.1,0.1-0.1c0,0,0.1,0,0.1-0.1l5.4-0.5c0.2,0,0.4-0.1,0.6-0.2c0.2-0.1,0.3-0.3,0.4-0.5
	l2.1-5c0,0,0.1-0.1,0.1-0.1c0.1-0.1,0.2-0.1,0.3,0c0,0,0.1,0.1,0.1,0.1l2.1,5c0.1,0.2,0.2,0.4,0.4,0.5c0.2,0.1,0.4,0.2,0.6,0.2
	l5.4,0.5c0,0,0.1,0,0.1,0.1c0,0,0.1,0.1,0.1,0.1c0,0,0,0.1,0,0.1C19,7.6,19,7.7,18.9,7.7z"></path>
				</svg>