<svg width="19" height="20" viewBox="0 0 19 20" fill="none" xmlns="http://www.w3.org/2000/svg">
			<path fill="currentColor" d="M6.9,20C5,20,3.3,19.3,2,18c-1.3-1.3-2-3.1-2-4.9c0-3.4,2.4-6.4,5.7-7c0.1,0,0.3,0,0.4,0.1
		c0.1,0.1,0.2,0.2,0.2,0.4v4.1c0,0.2-0.1,0.4-0.3,0.5c-0.3,0.2-0.6,0.4-0.9,0.7c-0.2,0.3-0.3,0.7-0.4,1.1c0,0.4,0.1,0.8,0.2,1.1
		c0.2,0.3,0.4,0.6,0.8,0.8c0.3,0.2,0.7,0.3,1.1,0.3c0.4,0,0.8-0.1,1.1-0.3c0.3-0.2,0.6-0.5,0.8-0.8C8.9,13.8,9,13.4,9,13V0.5
		C9,0.2,9.2,0,9.5,0h3.7c0.3,0,0.5,0.2,0.5,0.5c0,1.3,0.5,2.5,1.4,3.4c0.9,0.9,2.1,1.4,3.4,1.4c0.3,0,0.5,0.2,0.5,0.5v3.8
		c0,0.3-0.3,0.5-0.5,0.5c-1.7,0-3.3-0.4-4.7-1.3V13c0,1.9-0.7,3.6-2,4.9C10.4,19.3,8.7,20,6.9,20z M5.3,7.2C2.8,8,1,10.3,1,13
		c0,1.6,0.6,3.1,1.7,4.2C3.8,18.4,5.3,19,6.9,19c1.6,0,3-0.6,4.2-1.7c1.1-1.1,1.7-2.6,1.7-4.2V7.9c0-0.2,0.1-0.4,0.3-0.5
		c0.2-0.1,0.4-0.1,0.5,0c1.3,1,2.8,1.5,4.5,1.6V6.3c-1.3-0.1-2.6-0.7-3.6-1.7c-1-1-1.5-2.2-1.7-3.6H10v12c0,0.6-0.2,1.1-0.4,1.6
		c-0.3,0.5-0.7,0.9-1.2,1.2c-0.5,0.3-1,0.4-1.6,0.4c-0.6,0-1.1-0.2-1.6-0.5c-0.5-0.3-0.9-0.7-1.1-1.2c-0.3-0.5-0.4-1.1-0.3-1.6
		c0-0.6,0.2-1.1,0.5-1.6c0.3-0.4,0.6-0.7,1-0.9V7.2z"></path>
		</svg>