<svg width="16" height="16" viewBox="0 0 16 16" fill="none" xmlns="http://www.w3.org/2000/svg"><g><path fill="currentColor" d="M8.6,11.9C8.6,11.9,8.6,11.8,8.6,11.9c0-0.1,0-0.1,0-0.1c0-0.1-0.1-0.1-0.1-0.2c-0.1-0.1-0.3-0.2-0.4-0.2 s-0.3,0.1-0.4,0.2c0,0-0.1,0.1-0.1,0.2c0,0,0,0,0,0c0,0,0,0.1,0,0.1c0,0.1,0,0.1,0,0.2c0,0,0,0,0,0s0,0,0,0c0,0.3,0.3,0.6,0.6,0.6 c0.3,0,0.6-0.3,0.6-0.6c0,0,0,0,0,0s0,0,0,0C8.6,12,8.6,12,8.6,11.9z"></path><path fill="currentColor" d="M8,3.8C6.3,3.8,5,5,5,6.4v0.3C5,7,5.2,7.2,5.5,7.2S6,7,6,6.8V6.4c0-0.9,0.9-1.7,2-1.7c1.1,0,2,0.8,2,1.7 c0,0.9-0.9,1.7-2,1.7c-0.3,0-0.5,0.2-0.5,0.5v0.6c0,0.3,0.2,0.5,0.5,0.5s0.5-0.2,0.5-0.5V9.1C9.9,8.9,11,7.8,11,6.4 C11,5,9.7,3.8,8,3.8z"></path><path fill="currentColor" d="M8,0C3.6,0,0,3.6,0,8s3.6,8,8,8s8-3.6,8-8S12.4,0,8,0z M8,15c-3.9,0-7-3.1-7-7c0-3.9,3.1-7,7-7 c3.9,0,7,3.1,7,7C15,11.9,11.9,15,8,15z"></path></g></svg>