<svg width="20" height="18" viewBox="0 0 20 18" fill="none" xmlns="http://www.w3.org/2000/svg"> <path fill="currentColor" d="M19.9,5.3c-0.1-0.2-0.1-0.3-0.3-0.5c-0.1-0.1-0.3-0.2-0.4-0.3c-0.2-0.1-0.3-0.1-0.5-0.1h-4.6V4.2c0-1.1-0.4-2.2-1.2-3S11.1,0,10,0S7.9,0.4,7.1,1.2C6.3,2,5.9,3.1,5.9,4.2v0.2H1.2c-0.2,0-0.3,0-0.5,0.1C0.6,4.6,0.4,4.7,0.3,4.8C0.2,5,0.1,5.1,0.1,5.3C0,5.5,0,5.6,0,5.8l1.3,11.1c0,0.3,0.2,0.6,0.4,0.8C1.9,17.9,2.2,18,2.5,18h14.9c0.3,0,0.6-0.1,0.8-0.3c0.2-0.2,0.4-0.5,0.4-0.8L20,5.8C20,5.6,20,5.5,19.9,5.3z M6.8,4.2c0-0.9,0.3-1.7,0.9-2.3c1.2-1.2,3.3-1.2,4.5,0c0.6,0.6,0.9,1.4,0.9,2.3v0.2H6.8V4.2z M17.7,16.8c0,0.1,0,0.1-0.1,0.2c0,0-0.1,0.1-0.2,0.1H2.5c-0.1,0-0.1,0-0.2-0.1c0,0-0.1-0.1-0.1-0.2L1,5.7c0,0,0-0.1,0-0.1c0,0,0-0.1,0.1-0.1c0,0,0.1,0,0.1-0.1c0,0,0.1,0,0.1,0c0,0,0,0,0,0h4.6v2.5c0,0.3,0.2,0.5,0.5,0.5s0.5-0.2,0.5-0.5V5.4h6.3v2.5c0,0.3,0.2,0.5,0.5,0.5s0.5-0.2,0.5-0.5V5.4h4.6c0,0,0.1,0,0.1,0c0,0,0.1,0,0.1,0.1c0,0,0,0.1,0.1,0.1c0,0,0,0.1,0,0.1L17.7,16.8z"></path></svg>