<svg width="19" height="17" viewBox="0 0 19 17" fill="none" xmlns="http://www.w3.org/2000/svg">    <path fill="currentColor" d="M19,5.5C19,5.5,19,5.5,19,5.5l-1.3-4.6c-0.1-0.3-0.2-0.5-0.4-0.6C17,0.1,16.7,0,16.4,0H2.6c0,0,0,0,0,0      C2.3,0,2,0.1,1.8,0.2C1.6,0.4,1.4,0.6,1.4,0.9L0,5.5c0,0,0,0,0,0.1c0,0,0,0.1,0,0.1V7C0,8,0.4,8.8,1,9.4c0.1,0.1,0.3,0.3,0.5,0.4v6      c0,0.3,0.1,0.6,0.4,0.9C2.1,16.9,2.4,17,2.8,17h13.5c0.3,0,0.6-0.1,0.9-0.4c0.2-0.2,0.4-0.5,0.4-0.9v-6c0.2-0.1,0.3-0.2,0.5-0.4      c0.7-0.6,1-1.5,1-2.4L19,5.5C19,5.6,19,5.5,19,5.5z M2.3,1.1c0-0.1,0-0.1,0.1-0.1c0,0,0.1,0,0.1,0h13.9c0.1,0,0.1,0,0.1,0      c0,0,0.1,0.1,0.1,0.1l1.2,4H1.2L2.3,1.1z M7,6.1h5v1c0,0.6-0.3,1.3-0.7,1.7c-0.9,0.9-2.6,0.9-3.5,0C7.3,8.3,7,7.7,7,7V6.1z M1,7v-1      h5v1c0,0.6-0.3,1.3-0.7,1.7c-0.9,0.9-2.6,0.9-3.5,0C1.3,8.3,1,7.7,1,7z M16.5,15.8c0,0.1,0,0.1-0.1,0.2S16.3,16,16.2,16H2.8      c-0.1,0-0.1,0-0.2-0.1s-0.1-0.1-0.1-0.2v-5.5c0.3,0.1,0.7,0.2,1,0.2c0.9,0,1.8-0.4,2.5-1C6.2,9.2,6.4,9,6.5,8.8C6.6,9,6.8,9.2,7,9.4      c0.7,0.6,1.6,1,2.5,1s1.8-0.4,2.5-1c0.2-0.2,0.4-0.4,0.5-0.7C12.6,9,12.8,9.2,13,9.4c0.7,0.6,1.5,1,2.5,1c0.3,0,0.7-0.1,1-0.2V15.8z       M17.3,8.8c-0.9,0.9-2.6,0.9-3.5,0C13.3,8.3,13,7.7,13,7v-1h5v1C18,7.7,17.7,8.3,17.3,8.8z"></path>    </svg>