<svg width="20" height="15" viewBox="0 0 20 15" fill="none" xmlns="http://www.w3.org/2000/svg">
			<g>
				<path fill="currentColor" d="M8.8,4.3c-0.1-0.1-0.3-0.1-0.5,0C8.1,4.4,8,4.5,8,4.7v5.6c0,0.2,0.1,0.3,0.3,0.4c0.1,0,0.2,0.1,0.2,0.1
  c0.1,0,0.2,0,0.3-0.1l4.4-2.8c0.1-0.1,0.2-0.2,0.2-0.4s-0.1-0.3-0.2-0.4L8.8,4.3z M9,9.4V5.6l3,1.9L9,9.4z"></path>
				<path fill="currentColor" d="M19.5,2.4c-0.1-0.3-0.2-0.6-0.4-0.8c-0.2-0.2-0.5-0.4-0.8-0.5C15.2,0,10.2,0,10,0C9.8,0,4.8,0,1.7,1.1
  C1.4,1.2,1.1,1.4,0.9,1.6S0.6,2.1,0.5,2.4C0.3,3.3,0,4.9,0,7.5c0,2.6,0.3,4.2,0.5,5.1c0.1,0.3,0.2,0.6,0.4,0.8
  c0.2,0.2,0.5,0.4,0.8,0.5C4.7,15,9.3,15,9.9,15c0,0,0.1,0,0.1,0c0.2,0,5.2,0,8.3-1.1c0.3-0.1,0.5-0.3,0.7-0.5
  c0.2-0.2,0.4-0.5,0.4-0.8c0.2-0.9,0.5-2.4,0.5-5.1C20,4.9,19.7,3.3,19.5,2.4z M18.5,12.3c0,0.1-0.1,0.3-0.2,0.4
  c-0.1,0.1-0.2,0.2-0.4,0.3c-2.9,1.1-7.9,1.1-8,1.1c-0.1,0-5,0-8-1.1c-0.1-0.1-0.3-0.1-0.4-0.3c-0.1-0.1-0.2-0.2-0.2-0.4
  C1.2,11.5,1,10,1,7.5c0-2.5,0.3-4,0.5-4.8c0-0.1,0.1-0.3,0.2-0.4C1.8,2.2,1.9,2.1,2,2C4.9,1,9.6,0.9,10,0.9c0,0,0,0,0,0
  c0.1,0,5,0,8,1.1c0.1,0.1,0.3,0.1,0.4,0.3c0.1,0.1,0.2,0.2,0.2,0.4C18.8,3.5,19,5,19,7.5C19,10,18.8,11.5,18.5,12.3z"></path>
			</g>
		</svg>