<svg xmlns="http://www.w3.org/2000/svg" viewBox="0 0 22 15" width="22" height="15">
					<path fill="currentColor" d="M22,5.5C22,5.5,22,5.5,22,5.5L22,5.5C22,5.5,22,5.5,22,5.5l-1.3-3.3c-0.1-0.2-0.3-0.4-0.5-0.6
	c-0.2-0.1-0.4-0.2-0.7-0.2c0,0,0,0,0,0H16v-1C16,0.2,15.8,0,15.5,0H1.2C0.9,0,0.6,0.1,0.4,0.4C0.1,0.6,0,0.9,0,1.2v10.3
	c0,0.3,0.1,0.6,0.4,0.9s0.6,0.4,0.9,0.4h1.8C3.3,14,4.4,15,5.8,15s2.5-1,2.7-2.2h5.1c0.2,1.3,1.4,2.2,2.7,2.2s2.5-1,2.7-2.2h1.8
	c0.3,0,0.6-0.1,0.9-0.4c0.2-0.2,0.4-0.5,0.4-0.9V5.7C22,5.6,22,5.6,22,5.5z M19.5,2.5c0,0,0.1,0,0.1,0c0,0,0.1,0.1,0.1,0.1l1,2.6H16
	V2.5H19.5z M1.1,1.1C1.1,1,1.2,1,1.2,1H15v6.4H1V1.2C1,1.2,1,1.1,1.1,1.1z M1.1,11.7c0,0-0.1-0.1-0.1-0.2V8.4h14v1.5
	c-0.7,0.4-1.3,1.1-1.4,1.9H8.4c-0.2-1.3-1.4-2.2-2.7-2.2s-2.5,1-2.7,2.2H1.2C1.2,11.8,1.1,11.8,1.1,11.7z M5.8,14
	c-1,0-1.8-0.8-1.8-1.7c0-0.9,0.8-1.7,1.8-1.7s1.8,0.8,1.8,1.7C7.5,13.2,6.7,14,5.8,14z M16.2,14c-1,0-1.8-0.8-1.8-1.7
	c0-0.9,0.8-1.7,1.8-1.7s1.8,0.8,1.8,1.7C18,13.2,17.2,14,16.2,14z M21,11.6c0,0.1,0,0.1-0.1,0.2s-0.1,0.1-0.2,0.1h-1.8
	c-0.2-1.3-1.4-2.2-2.7-2.2c-0.1,0-0.2,0-0.2,0V6.1h5V11.6z"></path>
				</svg>