<svg width="19" height="19" viewBox="0 0 19 19" fill="none" xmlns="http://www.w3.org/2000/svg">
			<g>
				<path fill="currentColor" d="M9.5,5.2c-2.3,0-4.2,1.9-4.2,4.2c0,2.3,1.9,4.2,4.2,4.2c2.3,0,4.2-1.9,4.2-4.2C13.8,7.2,11.8,5.2,9.5,5.2z
   M9.5,12.8c-1.8,0-3.2-1.5-3.2-3.2s1.5-3.2,3.2-3.2s3.2,1.5,3.2,3.2S11.3,12.8,9.5,12.8z"></path>
				<path fill="currentColor" d="M14,0H5C2.2,0,0,2.2,0,5v9c0,2.8,2.2,5,5,5h9c2.8,0,5-2.2,5-5V5C19,2.2,16.8,0,14,0z M18,14c0,2.2-1.8,4-4,4H5
  c-2.2,0-4-1.8-4-4V5c0-2.2,1.8-4,4-4h9c2.2,0,4,1.8,4,4V14z"></path>
				<circle fill="currentColor" cx="14.4" cy="4.6" r="1.1"></circle>
			</g>
		</svg>