<svg width="20" height="17" viewBox="0 0 20 17" fill="none" xmlns="http://www.w3.org/2000/svg"><path fill="currentColor" d="M10,17c-0.1,0-0.2,0-0.2-0.1C9.4,16.7,0,11.6,0,5.4C0,4,0.6,2.6,1.6,1.6C2.6,0.6,4,0,5.4,0C7.4,0,9,0.9,10,2.4C11,0.9,12.6,0,14.6,0c1.4,0,2.8,0.6,3.8,1.6c1,1,1.6,2.4,1.6,3.8c0,6.2-9.4,11.3-9.8,11.5C10.2,17,10.1,17,10,17z M5.4,1C4.2,1,3.1,1.4,2.3,2.3C1.4,3.1,1,4.2,1,5.4c0,5.1,7.6,9.7,9,10.6c1.4-0.8,9-5.4,9-10.6c0-1.2-0.5-2.3-1.3-3.1c-0.8-0.8-2-1.3-3.1-1.3c-1.9,0-3.5,1-4.1,2.6c-0.2,0.4-0.8,0.4-0.9,0C8.9,2,7.3,1,5.4,1z"></path></svg>