<svg width="16" height="16" viewBox="0 0 16 16" fill="none" xmlns="http://www.w3.org/2000/svg">
			<g>
				<path fill="currentColor" d="M14.9,0H1.1C0.5,0,0,0.5,0,1.1v13.8C0,15.5,0.5,16,1.1,16h13.8c0.6,0,1.1-0.5,1.1-1.1V1.1
		C16,0.5,15.5,0,14.9,0z M15,14.9c0,0.1-0.1,0.1-0.1,0.1H1.1C1.1,15,1,14.9,1,14.9V1.1C1,1.1,1.1,1,1.1,1h13.8C14.9,1,15,1.1,15,1.1
		V14.9z"></path>
				<path fill="currentColor" d="M4.9,6.2c-0.3,0-0.5,0.2-0.5,0.5v5c0,0.3,0.2,0.5,0.5,0.5s0.5-0.2,0.5-0.5v-5C5.4,6.5,5.2,6.2,4.9,6.2z"></path>
				<path fill="currentColor" d="M7.9,6.9V6.8c0-0.3-0.2-0.5-0.5-0.5S6.9,6.5,6.9,6.8v5c0,0.3,0.2,0.5,0.5,0.5s0.5-0.2,0.5-0.5V8.9
		c0-0.5,0.2-0.9,0.5-1.2c0.6-0.6,1.8-0.6,2.4,0c0.3,0.3,0.5,0.7,0.5,1.2v2.8c0,0.3,0.2,0.5,0.5,0.5s0.5-0.2,0.5-0.5V8.9
		c0-0.7-0.3-1.4-0.8-1.9C10.5,6.1,8.9,6,7.9,6.9z"></path>
				<circle fill="currentColor" cx="4.9" cy="4.6" r="0.6"></circle>
			</g>
		</svg>